<?xml version="1.0" encoding="UTF-8"?>
<svg id="Layer_1" data-name="Layer 1" xmlns="http://www.w3.org/2000/svg" viewBox="0 0 2180.55 1025.35">
  <defs>
    <style>
      .cls-1 {
        fill: #fa2223;
      }

      .cls-2 {
        fill: #fff;
      }
    </style>
  </defs>
  <path class="cls-2" d="M2180.55,225.25v574.77c-87.97,87.97-137.28,137.36-225.25,225.33H225.33C137.36,937.38,88.06,887.99,0,800.02V225.25C88.06,137.28,137.36,87.97,225.33,0h1729.97l225.25,225.25Z"/>
  <g>
    <path class="cls-1" d="M363.74,430.68c78.99-48.1,136.57-63.32,228.49-63.81,78.01-1.19,156.78-1.03,234.79.84,52.24,1.46,104.53,3.19,157.18,8.24-115.95,22.97-234.97,28.57-352.93,27.29-51.32-.65-102.81-5.25-153.78,1.57-38.58,5.16-75.48,16.64-113.75,25.88h0Z"/>
    <path class="cls-1" d="M823.04,350.65c98.14-64.33,204.32-123.65,321.88-142.01,197.82-30.52,393.11,41.91,567.56,127.53-170.88-46.17-341.86-106.81-520.43-96.36-130.83,6.04-248.56,61.85-369.01,110.84h0Z"/>
    <path class="cls-1" d="M1254.51,380.69c174.36-48.53,386.56-36.03,562.35,2.47-94.08,8.46-187.72,5.4-281.6,3.9-83.07-2.13-198.41-3.48-280.74-6.37h0Z"/>
    <path d="M472.13,634.3h-104.45v-157.07h95.73c16.78,0,30.09,3.62,39.94,10.85,9.84,7.23,14.76,17.82,14.76,31.76,0,5.81-1.5,11.18-4.51,16.1-3.01,4.92-6.89,9.2-11.64,12.83,7.73,3.43,13.81,8.32,18.23,14.67,4.43,6.34,6.64,13.97,6.64,22.89,0,13.94-5.09,25.42-15.26,34.44-10.18,9.02-23.32,13.53-39.44,13.53ZM463.41,538.37c5.75,0,10.49-1.24,14.22-3.72,3.73-2.48,5.6-6.33,5.6-11.55s-2.02-9.17-6.05-11.64c-4.03-2.48-8.62-3.71-13.78-3.71h-60.85v30.62h60.85ZM472.13,603.77c13.21,0,19.82-5.81,19.82-17.44,0-4.23-.94-7.63-2.82-10.21-1.88-2.58-4.33-4.42-7.34-5.55-3.01-1.12-6.23-1.69-9.66-1.69h-69.57v34.88h69.57Z"/>
    <path d="M703.33,634.3h-39.74l-31.32-52.33h-50.74v52.33h-34.88v-157.07h95.73c11.23,0,20.93,2.25,29.08,6.74,8.16,4.49,14.47,10.69,18.93,18.58,4.46,7.89,6.69,16.93,6.69,27.1,0,10.7-2.59,20.15-7.78,28.34-5.19,8.19-12.34,14.41-21.45,18.63l35.48,57.68ZM642.38,551.45c5.75,0,10.49-1.91,14.22-5.75,3.73-3.83,5.6-9.18,5.6-16.05s-2-12.32-6-16.15c-4-3.83-8.61-5.75-13.82-5.75h-60.85v43.7h60.85Z"/>
    <path d="M811.15,638.66c-17.64,0-33.73-3.6-48.26-10.8-14.54-7.2-26.11-17.05-34.73-29.53-8.62-12.49-12.93-26.66-12.93-42.51s4.31-30.04,12.93-42.57c8.62-12.52,20.2-22.38,34.73-29.58,14.53-7.2,30.62-10.8,48.26-10.8s33.81,3.6,48.31,10.8c14.5,7.2,26.08,17.06,34.73,29.58,8.65,12.52,12.98,26.71,12.98,42.57s-4.33,30.02-12.98,42.51c-8.66,12.49-20.23,22.33-34.73,29.53-14.5,7.2-30.61,10.8-48.31,10.8ZM811.15,605.46c10.7,0,20.69-1.95,29.98-5.85,9.28-3.9,16.8-9.55,22.54-16.95,5.75-7.4,8.62-16.35,8.62-26.85s-2.88-19.56-8.62-26.96-13.26-13.05-22.54-16.95c-9.29-3.9-19.28-5.85-29.98-5.85s-20.7,1.97-29.98,5.9c-9.29,3.93-16.78,9.61-22.5,17.05-5.71,7.43-8.57,16.37-8.57,26.81s2.86,19.27,8.57,26.71c5.71,7.43,13.21,13.12,22.5,17.05,9.28,3.93,19.27,5.9,29.98,5.9Z"/>
    <path d="M1022.92,638.66c-17.64,0-33.73-3.6-48.26-10.8-14.54-7.2-26.11-17.05-34.73-29.53-8.62-12.49-12.93-26.66-12.93-42.51s4.31-30.04,12.93-42.57c8.62-12.52,20.2-22.38,34.73-29.58,14.53-7.2,30.62-10.8,48.26-10.8s33.81,3.6,48.31,10.8c14.5,7.2,26.08,17.06,34.73,29.58,8.65,12.52,12.98,26.71,12.98,42.57s-4.33,30.02-12.98,42.51c-8.66,12.49-20.23,22.33-34.73,29.53-14.5,7.2-30.61,10.8-48.31,10.8ZM1022.92,605.46c10.7,0,20.69-1.95,29.98-5.85,9.28-3.9,16.8-9.55,22.54-16.95,5.75-7.4,8.62-16.35,8.62-26.85s-2.88-19.56-8.62-26.96c-5.75-7.4-13.26-13.05-22.54-16.95-9.29-3.9-19.28-5.85-29.98-5.85s-20.7,1.97-29.98,5.9c-9.29,3.93-16.78,9.61-22.5,17.05-5.71,7.43-8.57,16.37-8.57,26.81s2.86,19.27,8.57,26.71,13.21,13.12,22.5,17.05c9.28,3.93,19.27,5.9,29.98,5.9Z"/>
    <path d="M1201.6,575.53l-27.95,26.66v32.11h-34.88v-157.07h34.88v82.15l86.02-82.15h44.89l-82.25,78.59,82.25,78.49h-41.52l-61.44-58.77Z"/>
    <path d="M1464.01,634.3h-139.63v-157.07h34.88v126.55h104.75v30.52Z"/>
    <path d="M1532.03,634.3h-34.98v-78.49l-78.49-78.59h43.6l52.33,50.24,52.42-50.24h43.61l-78.49,78.59v78.49Z"/>
    <path d="M1797.88,634.3h-41.52l-98.11-115.85v115.85h-34.88v-157.07h41.42l98.21,115.85v-115.85h34.88v157.07Z"/>
    <g>
      <path class="cls-1" d="M427.81,771.78h-19.75l-44.32-88.69h22.94l31.56,68.04,33.41-68.04h20.48l-44.32,88.69Z"/>
      <path class="cls-1" d="M500.14,771.78h-19.7v-88.69h19.7v88.69Z"/>
      <path class="cls-1" d="M612.75,771.78h-23.44l-55.4-65.41v65.41h-19.7v-88.69h23.39l55.45,65.41v-65.41h19.7v88.69Z"/>
      <path class="cls-1" d="M683.03,771.78h-19.7v-71.46h-39.39v-17.23h98.54v17.23h-39.45v71.46Z"/>
      <path class="cls-1" d="M816.87,771.78h-20.93l-9.62-19.69h-47.34l-9.57,19.69h-20.93l44.32-88.69h19.75l44.32,88.69ZM777.98,734.85l-15.33-31.45-15.28,31.45h30.61Z"/>
      <path class="cls-1" d="M870.92,774.24c-11.12,0-20.9-2.03-29.35-6.1-8.45-4.06-15.05-9.62-19.81-16.68-4.76-7.05-7.13-15.05-7.13-24s2.38-16.96,7.13-24.03c4.76-7.07,11.36-12.64,19.81-16.7,8.45-4.07,18.23-6.1,29.35-6.1,7.24,0,14.86,1.58,22.86,4.73,8,3.15,14.26,7.13,18.77,11.95l-12.87,14.27c-2.84-3.39-7.04-6.27-12.62-8.64-5.58-2.37-11.41-3.55-17.49-3.55-6.71,0-12.73,1.11-18.05,3.33-5.31,2.22-9.51,5.43-12.59,9.62-3.08,4.2-4.61,9.24-4.61,15.13s1.6,10.88,4.81,15.08c3.21,4.2,7.49,7.41,12.84,9.62,5.35,2.22,11.22,3.33,17.6,3.33,5.89,0,11.39-1.2,16.48-3.58,5.09-2.39,9.09-5.86,12-10.41h-30.27v-17.23h50.3v47.51h-19.69v-5.37c-7.57,5.22-16.73,7.83-27.48,7.83Z"/>
      <path class="cls-1" d="M1011.94,771.78h-78.84v-88.69h78.84v17.23h-59.14v18.52h49.29v17.23h-49.29v18.46h59.14v17.23Z"/>
      <path class="cls-1" d="M1110.53,774.24c-10.82,0-20.35-2.03-28.59-6.1-8.25-4.06-14.68-9.62-19.31-16.68-4.62-7.05-6.94-15.05-6.94-24s2.27-16.96,6.83-24.03c4.55-7.07,10.87-12.64,18.97-16.7,8.1-4.07,17.48-6.1,28.15-6.1,7.05,0,14.34,1.58,21.88,4.73,7.53,3.15,13.47,7.13,17.79,11.95l-12.53,14.27c-2.65-3.39-6.42-6.27-11.31-8.64-4.89-2.37-10.29-3.55-16.23-3.55-6.56,0-12.43,1.11-17.6,3.33-5.17,2.22-9.25,5.43-12.25,9.62-3,4.2-4.5,9.24-4.5,15.13s1.5,10.88,4.5,15.08c3,4.2,7.08,7.41,12.25,9.62,5.17,2.22,11.03,3.33,17.6,3.33,4.74,0,9.67-.99,14.8-2.97,5.13-1.98,9.35-5,12.67-9.06l12.59,14.38c-5.63,5.41-11.74,9.5-18.33,12.26-6.59,2.76-13.4,4.14-20.45,4.14Z"/>
      <path class="cls-1" d="M1263.84,771.78h-20.93l-9.62-19.69h-47.34l-9.57,19.69h-20.93l44.32-88.69h19.75l44.32,88.69ZM1224.95,734.85l-15.33-31.45-15.28,31.45h30.61Z"/>
      <path class="cls-1" d="M1363.5,771.78h-22.44l-17.68-29.55h-28.65v29.55h-19.7v-88.69h54.05c6.34,0,11.82,1.27,16.42,3.81,4.61,2.54,8.17,6.03,10.69,10.49,2.52,4.46,3.78,9.56,3.78,15.31,0,6.04-1.46,11.38-4.39,16-2.93,4.62-6.97,8.13-12.12,10.52l20.03,32.56ZM1329.09,725c3.25,0,5.92-1.08,8.03-3.24s3.16-5.19,3.16-9.06-1.13-6.96-3.39-9.12c-2.26-2.16-4.86-3.25-7.81-3.25h-34.36v24.68h34.36Z"/>
      <path class="cls-1" d="M1465.9,774.24c-10.82,0-20.35-2.03-28.59-6.1-8.25-4.06-14.68-9.62-19.31-16.68-4.62-7.05-6.94-15.05-6.94-24s2.27-16.96,6.83-24.03c4.55-7.07,10.87-12.64,18.97-16.7,8.1-4.07,17.48-6.1,28.15-6.1,7.05,0,14.34,1.58,21.88,4.73,7.53,3.15,13.47,7.13,17.79,11.95l-12.53,14.27c-2.65-3.39-6.42-6.27-11.31-8.64-4.89-2.37-10.29-3.55-16.23-3.55-6.56,0-12.43,1.11-17.6,3.33-5.17,2.22-9.25,5.43-12.25,9.62-3,4.2-4.5,9.24-4.5,15.13s1.5,10.88,4.5,15.08c3,4.2,7.08,7.41,12.25,9.62,5.17,2.22,11.03,3.33,17.6,3.33,4.74,0,9.67-.99,14.8-2.97,5.13-1.98,9.35-5,12.67-9.06l12.59,14.38c-5.63,5.41-11.74,9.5-18.33,12.26-6.59,2.76-13.4,4.14-20.45,4.14Z"/>
      <path class="cls-1" d="M1594.71,771.78h-78.84v-88.69h19.7v71.45h59.14v17.23Z"/>
      <path class="cls-1" d="M1648.55,774.24c-6.34,0-12.46-.79-18.35-2.38-5.89-1.59-11.15-4.06-15.78-7.41-4.62-3.36-8.3-7.68-11.02-12.98-2.73-5.3-4.09-11.66-4.09-19.08v-49.29h19.7v49.29c0,4.92,1.4,9.03,4.2,12.31,2.8,3.28,6.45,5.75,10.97,7.39,4.51,1.64,9.31,2.46,14.38,2.46s9.92-.79,14.44-2.38c4.51-1.58,8.17-4.02,10.97-7.3,2.8-3.28,4.2-7.44,4.2-12.48v-49.29h19.7v49.29c0,7.42-1.36,13.78-4.09,19.08-2.72,5.3-6.4,9.62-11.02,12.98-4.63,3.36-9.89,5.83-15.78,7.41-5.9,1.58-12.03,2.38-18.41,2.38Z"/>
      <path class="cls-1" d="M1770.69,771.78h-58.98v-88.69h54.05c9.47,0,16.99,2.04,22.55,6.12,5.56,4.09,8.34,10.06,8.34,17.93,0,3.28-.85,6.31-2.55,9.09-1.7,2.78-3.89,5.2-6.57,7.25,4.36,1.94,7.8,4.7,10.3,8.28,2.5,3.58,3.75,7.89,3.75,12.93,0,7.87-2.87,14.35-8.62,19.44-5.75,5.09-13.17,7.64-22.27,7.64ZM1765.77,717.62c3.25,0,5.92-.7,8.03-2.1,2.11-1.4,3.16-3.57,3.16-6.52s-1.14-5.17-3.41-6.57c-2.28-1.4-4.87-2.1-7.78-2.1h-34.36v17.29h34.36ZM1770.69,754.54c7.46,0,11.19-3.28,11.19-9.85,0-2.39-.53-4.31-1.6-5.76-1.06-1.45-2.45-2.5-4.14-3.13-1.7-.63-3.52-.95-5.46-.95h-39.28v19.69h39.28Z"/>
    </g>
  </g>
</svg>