<?xml version="1.0" encoding="UTF-8"?>
<svg id="Layer_1" data-name="Layer 1" xmlns="http://www.w3.org/2000/svg" viewBox="0 0 1920 302.78">
  <defs>
    <style>
      .cls-1 {
        fill: #fff;
      }
    </style>
  </defs>
  <path class="cls-1" d="M0,302.78c104.37-63.55,180.46-83.67,301.91-84.31,103.07-1.57,207.16-1.36,310.23,1.11,69.03,1.93,138.12,4.22,207.68,10.89-153.21,30.34-310.46,37.75-466.32,36.06-67.81-.86-135.84-6.94-203.19,2.07-50.97,6.82-99.73,21.99-150.3,34.19h0Z"/>
  <path class="cls-1" d="M606.86,197.04C736.53,112.03,876.84,33.66,1032.16,9.4c261.38-40.33,519.41,55.38,749.91,168.51-225.79-61-451.7-141.12-687.64-127.31-172.86,7.97-328.42,81.72-487.57,146.45h0Z"/>
  <path class="cls-1" d="M1176.97,236.73c230.38-64.12,510.76-47.61,743.03,3.26-124.31,11.18-248.04,7.14-372.08,5.16-109.75-2.82-262.15-4.6-370.94-8.42h0Z"/>
</svg>