<?xml version="1.0" encoding="UTF-8"?>
<svg id="Layer_1" data-name="Layer 1" xmlns="http://www.w3.org/2000/svg" viewBox="0 0 1920 756.73">
  <defs>
    <style>
      .cls-1 {
        fill: #fa2223;
      }

      .cls-2 {
        fill: #fff;
      }
    </style>
  </defs>
  <path class="cls-1" d="M0,302.78c104.37-63.55,180.46-83.67,301.91-84.31,103.07-1.57,207.16-1.36,310.23,1.11,69.03,1.93,138.12,4.22,207.68,10.89-153.21,30.34-310.46,37.75-466.32,36.06-67.81-.86-135.84-6.94-203.19,2.07-50.97,6.82-99.73,21.99-150.3,34.19h0Z"/>
  <path class="cls-1" d="M606.86,197.04C736.53,112.03,876.84,33.66,1032.16,9.4c261.38-40.33,519.41,55.38,749.91,168.51-225.79-61-451.7-141.12-687.64-127.31-172.86,7.97-328.42,81.72-487.57,146.45h0Z"/>
  <path class="cls-1" d="M1176.97,236.73c230.38-64.12,510.76-47.61,743.03,3.26-124.31,11.18-248.04,7.14-372.08,5.16-109.75-2.82-262.15-4.6-370.94-8.42h0Z"/>
  <path class="cls-2" d="M143.2,571.82H5.19v-207.54h126.49c22.17,0,39.76,4.78,52.77,14.34,13,9.56,19.51,23.55,19.51,41.97,0,7.68-1.99,14.77-5.96,21.28-3.97,6.5-9.1,12.16-15.38,16.96,10.21,4.54,18.24,11,24.09,19.38s8.78,18.46,8.78,30.25c0,18.42-6.73,33.59-20.16,45.5-13.45,11.91-30.82,17.87-52.12,17.87ZM131.68,445.07c7.59,0,13.86-1.64,18.79-4.91,4.93-3.27,7.4-8.36,7.4-15.26s-2.67-12.11-7.99-15.38c-5.33-3.27-11.39-4.91-18.2-4.91H51.29v40.46h80.4ZM143.2,531.49c17.46,0,26.19-7.68,26.19-23.05,0-5.58-1.24-10.08-3.73-13.49s-5.72-5.84-9.69-7.33c-3.97-1.48-8.23-2.23-12.77-2.23H51.29v46.09h91.92Z"/>
  <path class="cls-2" d="M448.69,571.82h-52.51l-41.38-69.14h-67.04v69.14h-46.09v-207.54h126.49c14.84,0,27.65,2.97,38.43,8.9,10.78,5.94,19.12,14.12,25.01,24.55s8.84,22.37,8.84,35.81c0,14.14-3.42,26.63-10.28,37.45-6.85,10.83-16.3,19.03-28.35,24.62l46.88,76.21ZM368.16,462.35c7.59,0,13.86-2.53,18.79-7.59,4.93-5.06,7.4-12.13,7.4-21.21s-2.64-16.28-7.92-21.34c-5.28-5.06-11.37-7.59-18.27-7.59h-80.4v57.74h80.4Z"/>
  <path class="cls-2" d="M591.15,577.58c-23.31,0-44.56-4.76-63.77-14.27-19.21-9.51-34.5-22.52-45.89-39.02-11.39-16.5-17.09-35.23-17.09-56.17s5.7-39.7,17.09-56.24c11.39-16.54,26.69-29.57,45.89-39.08,19.2-9.51,40.46-14.27,63.77-14.27s44.67,4.76,63.84,14.27c19.16,9.51,34.45,22.54,45.89,39.08,11.43,16.55,17.15,35.29,17.15,56.24s-5.72,39.67-17.15,56.17c-11.44,16.5-26.74,29.51-45.89,39.02-19.16,9.51-40.44,14.27-63.84,14.27ZM591.15,533.71c14.14,0,27.34-2.57,39.61-7.73,12.26-5.15,22.19-12.61,29.79-22.39s11.39-21.61,11.39-35.48-3.8-25.84-11.39-35.62c-7.59-9.78-17.53-17.24-29.79-22.39-12.27-5.15-25.47-7.73-39.61-7.73s-27.35,2.6-39.61,7.79c-12.27,5.19-22.18,12.7-29.73,22.52-7.55,9.82-11.32,21.63-11.32,35.42s3.77,25.47,11.32,35.29,17.46,17.33,29.73,22.52c12.26,5.19,25.47,7.79,39.61,7.79Z"/>
  <path class="cls-2" d="M870.97,577.58c-23.31,0-44.56-4.76-63.77-14.27-19.21-9.51-34.5-22.52-45.89-39.02-11.39-16.5-17.09-35.23-17.09-56.17s5.7-39.7,17.09-56.24c11.39-16.54,26.69-29.57,45.89-39.08,19.2-9.51,40.46-14.27,63.77-14.27s44.67,4.76,63.84,14.27c19.16,9.51,34.45,22.54,45.89,39.08,11.43,16.55,17.15,35.29,17.15,56.24s-5.72,39.67-17.15,56.17c-11.44,16.5-26.74,29.51-45.89,39.02-19.16,9.51-40.44,14.27-63.84,14.27ZM870.97,533.71c14.14,0,27.34-2.57,39.61-7.73,12.26-5.15,22.19-12.61,29.79-22.39s11.39-21.61,11.39-35.48-3.8-25.84-11.39-35.62c-7.59-9.78-17.53-17.24-29.79-22.39-12.27-5.15-25.47-7.73-39.61-7.73s-27.35,2.6-39.61,7.79c-12.27,5.19-22.18,12.7-29.73,22.52s-11.32,21.63-11.32,35.42,3.77,25.47,11.32,35.29c7.55,9.82,17.46,17.33,29.73,22.52,12.26,5.19,25.47,7.79,39.61,7.79Z"/>
  <path class="cls-2" d="M1107.06,494.17l-36.93,35.22v42.43h-46.09v-207.54h46.09v108.55l113.66-108.55h59.31l-108.68,103.84,108.68,103.7h-54.86l-81.18-77.65Z"/>
  <path class="cls-2" d="M1453.78,571.82h-184.49v-207.54h46.09v167.21h138.4v40.33Z"/>
  <path class="cls-2" d="M1543.66,571.82h-46.22v-103.7l-103.7-103.84h57.61l69.14,66.39,69.27-66.39h57.62l-103.7,103.84v103.7Z"/>
  <path class="cls-2" d="M1894.92,571.82h-54.86l-129.63-153.07v153.07h-46.09v-207.54h54.73l129.76,153.07v-153.07h46.09v207.54Z"/>
  <g>
    <path class="cls-1" d="M84.65,753.47h-26.1L0,636.29h30.31l41.7,89.9,44.14-89.9h27.06l-58.55,117.18Z"/>
    <path class="cls-1" d="M180.22,753.47h-26.03v-117.18h26.03v117.18Z"/>
    <path class="cls-1" d="M329.01,753.47h-30.98l-73.19-86.43v86.43h-26.03v-117.18h30.9l73.27,86.43v-86.43h26.03v117.18Z"/>
    <path class="cls-1" d="M421.87,753.47h-26.03v-94.41h-52.05v-22.77h130.2v22.77h-52.12v94.41Z"/>
    <path class="cls-1" d="M598.72,753.47h-27.65l-12.72-26.02h-62.55l-12.64,26.02h-27.65l58.55-117.18h26.1l58.55,117.18ZM547.33,704.68l-20.26-41.55-20.18,41.55h40.44Z"/>
    <path class="cls-1" d="M670.13,756.73c-14.69,0-27.61-2.69-38.78-8.06-11.16-5.37-19.88-12.72-26.17-22.03-6.28-9.32-9.43-19.89-9.43-31.72s3.14-22.41,9.43-31.75c6.29-9.34,15.01-16.7,26.17-22.07,11.17-5.37,24.09-8.06,38.78-8.06,9.56,0,19.63,2.08,30.2,6.25,10.57,4.17,18.84,9.43,24.81,15.79l-17.01,18.85c-3.75-4.48-9.3-8.29-16.67-11.42-7.37-3.13-15.07-4.7-23.1-4.7-8.87,0-16.82,1.47-23.85,4.4-7.02,2.93-12.57,7.17-16.63,12.72s-6.1,12.21-6.1,20,2.12,14.38,6.36,19.92c4.24,5.54,9.89,9.78,16.97,12.72,7.07,2.93,14.82,4.4,23.25,4.4,7.79,0,15.05-1.58,21.77-4.73,6.73-3.15,12.01-7.74,15.86-13.75h-40v-22.77h66.47v62.77h-26.02v-7.1c-10.01,6.9-22.11,10.35-36.3,10.35Z"/>
    <path class="cls-1" d="M856.46,753.47h-104.17v-117.18h104.17v22.77h-78.14v24.48h65.13v22.77h-65.13v24.4h78.14v22.77Z"/>
    <path class="cls-1" d="M986.72,756.73c-14.3,0-26.89-2.69-37.78-8.06-10.9-5.37-19.4-12.72-25.51-22.03-6.11-9.32-9.17-19.89-9.17-31.72s3-22.41,9.02-31.75c6.01-9.34,14.36-16.7,25.06-22.07,10.7-5.37,23.09-8.06,37.19-8.06,9.32,0,18.95,2.08,28.91,6.25,9.95,4.17,17.79,9.43,23.51,15.79l-16.56,18.85c-3.5-4.48-8.48-8.29-14.94-11.42-6.46-3.13-13.6-4.7-21.44-4.7-8.67,0-16.43,1.47-23.25,4.4-6.83,2.93-12.22,7.17-16.19,12.72-3.97,5.54-5.95,12.21-5.95,20s1.98,14.38,5.95,19.92c3.97,5.54,9.36,9.78,16.19,12.72,6.82,2.93,14.58,4.4,23.25,4.4,6.26,0,12.78-1.31,19.56-3.92,6.78-2.61,12.36-6.6,16.74-11.98l16.64,19c-7.44,7.15-15.52,12.55-24.21,16.19-8.7,3.65-17.71,5.47-27.02,5.47Z"/>
    <path class="cls-1" d="M1189.3,753.47h-27.65l-12.72-26.02h-62.55l-12.64,26.02h-27.65l58.55-117.18h26.1l58.55,117.18ZM1137.91,704.68l-20.26-41.55-20.18,41.55h40.44Z"/>
    <path class="cls-1" d="M1320.97,753.47h-29.64l-23.37-39.04h-37.85v39.04h-26.03v-117.18h71.42c8.38,0,15.61,1.68,21.7,5.03,6.09,3.35,10.79,7.97,14.12,13.86,3.33,5.89,4.99,12.63,4.99,20.22,0,7.98-1.93,15.03-5.8,21.14s-9.21,10.75-16.01,13.9l26.47,43.03ZM1275.51,691.66c4.29,0,7.82-1.43,10.61-4.28s4.18-6.85,4.18-11.98-1.49-9.2-4.47-12.05c-2.98-2.86-6.42-4.29-10.31-4.29h-45.39v32.6h45.39Z"/>
    <path class="cls-1" d="M1456.28,756.73c-14.3,0-26.89-2.69-37.78-8.06-10.9-5.37-19.4-12.72-25.51-22.03-6.11-9.32-9.17-19.89-9.17-31.72s3-22.41,9.02-31.75c6.01-9.34,14.36-16.7,25.06-22.07,10.7-5.37,23.09-8.06,37.19-8.06,9.32,0,18.95,2.08,28.91,6.25,9.95,4.17,17.79,9.43,23.51,15.79l-16.56,18.85c-3.5-4.48-8.48-8.29-14.94-11.42-6.46-3.13-13.6-4.7-21.44-4.7-8.67,0-16.43,1.47-23.25,4.4-6.83,2.93-12.22,7.17-16.19,12.72-3.97,5.54-5.95,12.21-5.95,20s1.98,14.38,5.95,19.92c3.97,5.54,9.36,9.78,16.19,12.72,6.82,2.93,14.58,4.4,23.25,4.4,6.26,0,12.78-1.31,19.56-3.92,6.78-2.61,12.36-6.6,16.74-11.98l16.64,19c-7.44,7.15-15.52,12.55-24.21,16.19-8.7,3.65-17.71,5.47-27.02,5.47Z"/>
    <path class="cls-1" d="M1626.47,753.47h-104.17v-117.18h26.03v94.41h78.14v22.77Z"/>
    <path class="cls-1" d="M1697.61,756.73c-8.38,0-16.46-1.05-24.25-3.14-7.79-2.1-14.74-5.36-20.85-9.8-6.11-4.44-10.97-10.15-14.56-17.15-3.6-7-5.4-15.4-5.4-25.21v-65.13h26.03v65.13c0,6.51,1.85,11.93,5.54,16.27,3.7,4.34,8.52,7.59,14.49,9.76s12.3,3.25,19,3.25,13.11-1.05,19.08-3.14c5.96-2.09,10.79-5.31,14.49-9.65,3.7-4.34,5.54-9.83,5.54-16.49v-65.13h26.03v65.13c0,9.81-1.8,18.21-5.4,25.21-3.6,7-8.45,12.72-14.56,17.15-6.11,4.43-13.06,7.7-20.85,9.8-7.79,2.09-15.9,3.14-24.33,3.14Z"/>
    <path class="cls-1" d="M1859,753.47h-77.93v-117.18h71.42c12.52,0,22.45,2.7,29.79,8.09,7.35,5.4,11.02,13.3,11.02,23.7,0,4.34-1.12,8.34-3.36,12.01-2.25,3.67-5.14,6.87-8.69,9.57,5.77,2.56,10.3,6.21,13.6,10.94,3.3,4.73,4.95,10.42,4.95,17.08,0,10.4-3.8,18.96-11.38,25.69-7.59,6.73-17.4,10.09-29.43,10.09ZM1852.49,681.91c4.29,0,7.82-.92,10.61-2.77,2.79-1.85,4.18-4.72,4.18-8.61s-1.51-6.84-4.51-8.69c-3.01-1.85-6.43-2.77-10.28-2.77h-45.39v22.85h45.39ZM1859,730.7c9.86,0,14.79-4.34,14.79-13.01,0-3.15-.7-5.69-2.11-7.62s-3.23-3.3-5.47-4.14c-2.25-.84-4.65-1.26-7.21-1.26h-51.9v26.02h51.9Z"/>
  </g>
</svg>