<?xml version="1.0" encoding="UTF-8"?>
<svg id="Layer_1" data-name="Layer 1" xmlns="http://www.w3.org/2000/svg" viewBox="0 0 1378.09 1378.09">
  <defs>
    <style>
      .cls-1 {
        fill: #fa2223;
      }

      .cls-2 {
        fill: #fff;
      }
    </style>
  </defs>
  <rect class="cls-1" width="1378.09" height="1378.09"/>
  <g>
    <path class="cls-2" d="M109.83,582.09c62.98-38.34,108.88-50.48,182.16-50.87,62.19-.95,124.99-.82,187.18.67,41.65,1.17,83.33,2.54,125.3,6.57-92.44,18.31-187.32,22.77-281.36,21.76-40.91-.52-81.96-4.19-122.6,1.25-30.76,4.12-60.18,13.27-90.68,20.63h0Z"/>
    <path class="cls-2" d="M475.98,518.29c78.24-51.29,162.89-98.57,256.61-113.21,157.71-24.33,313.39,33.41,452.46,101.67-136.23-36.8-272.54-85.15-414.89-76.82-104.3,4.81-198.15,49.31-294.18,88.36h0Z"/>
    <path class="cls-2" d="M819.96,542.24c139-38.69,308.17-28.73,448.31,1.97-75,6.75-149.65,4.31-224.5,3.11-66.22-1.7-158.17-2.78-223.81-5.08h0Z"/>
    <path class="cls-2" d="M196.23,744.42h-83.27v-125.22h76.32c13.38,0,23.99,2.88,31.84,8.65,7.85,5.77,11.77,14.21,11.77,25.32,0,4.63-1.2,8.91-3.59,12.84-2.4,3.92-5.49,7.33-9.28,10.23,6.16,2.74,11.01,6.64,14.54,11.69,3.53,5.06,5.29,11.14,5.29,18.25,0,11.11-4.06,20.26-12.17,27.46-8.11,7.19-18.59,10.78-31.45,10.78ZM189.28,667.94c4.58,0,8.36-.99,11.34-2.96,2.98-1.97,4.47-5.04,4.47-9.2s-1.61-7.31-4.82-9.28c-3.21-1.97-6.87-2.96-10.98-2.96h-48.51v24.41h48.51ZM196.23,720.08c10.53,0,15.8-4.63,15.8-13.9,0-3.37-.75-6.08-2.25-8.14s-3.45-3.53-5.85-4.42c-2.4-.89-4.96-1.34-7.7-1.34h-55.46v27.81h55.46Z"/>
    <path class="cls-2" d="M380.55,744.42h-31.68l-24.97-41.71h-40.45v41.71h-27.81v-125.22h76.32c8.95,0,16.68,1.79,23.19,5.37,6.5,3.58,11.54,8.52,15.09,14.81,3.56,6.29,5.33,13.49,5.33,21.61,0,8.53-2.07,16.07-6.2,22.59-4.14,6.53-9.83,11.48-17.1,14.85l28.28,45.98ZM331.96,678.37c4.58,0,8.36-1.53,11.34-4.58,2.98-3.05,4.47-7.32,4.47-12.8s-1.59-9.82-4.78-12.88c-3.19-3.05-6.86-4.58-11.02-4.58h-48.51v34.84h48.51Z"/>
    <path class="cls-2" d="M466.5,747.89c-14.06,0-26.89-2.87-38.47-8.61-11.59-5.74-20.82-13.59-27.69-23.54-6.87-9.96-10.31-21.25-10.31-33.89s3.44-23.95,10.31-33.93c6.87-9.98,16.1-17.84,27.69-23.58,11.59-5.74,24.41-8.61,38.47-8.61s26.95,2.87,38.52,8.61c11.56,5.74,20.79,13.6,27.69,23.58,6.9,9.98,10.35,21.29,10.35,33.93s-3.45,23.94-10.35,33.89c-6.9,9.95-16.13,17.8-27.69,23.54-11.56,5.74-24.4,8.61-38.52,8.61ZM466.5,721.42c8.53,0,16.5-1.55,23.9-4.66,7.4-3.11,13.39-7.61,17.97-13.51,4.58-5.9,6.87-13.04,6.87-21.41s-2.29-15.59-6.87-21.49c-4.58-5.9-10.57-10.4-17.97-13.51-7.4-3.11-15.37-4.66-23.9-4.66s-16.5,1.57-23.9,4.7c-7.4,3.13-13.38,7.66-17.94,13.59s-6.83,13.05-6.83,21.37,2.28,15.36,6.83,21.29,10.53,10.46,17.94,13.59c7.4,3.13,15.36,4.7,23.9,4.7Z"/>
    <path class="cls-2" d="M635.33,747.89c-14.06,0-26.89-2.87-38.47-8.61-11.59-5.74-20.82-13.59-27.69-23.54-6.87-9.96-10.31-21.25-10.31-33.89s3.44-23.95,10.31-33.93c6.87-9.98,16.1-17.84,27.69-23.58,11.59-5.74,24.41-8.61,38.47-8.61s26.95,2.87,38.52,8.61c11.56,5.74,20.79,13.6,27.69,23.58,6.9,9.98,10.35,21.29,10.35,33.93s-3.45,23.94-10.35,33.89c-6.9,9.95-16.13,17.8-27.69,23.54-11.56,5.74-24.4,8.61-38.52,8.61ZM635.33,721.42c8.53,0,16.5-1.55,23.9-4.66,7.4-3.11,13.39-7.61,17.97-13.51,4.58-5.9,6.87-13.04,6.87-21.41s-2.29-15.59-6.87-21.49c-4.58-5.9-10.57-10.4-17.97-13.51-7.4-3.11-15.37-4.66-23.9-4.66s-16.5,1.57-23.9,4.7c-7.4,3.13-13.38,7.66-17.94,13.59-4.55,5.93-6.83,13.05-6.83,21.37s2.28,15.36,6.83,21.29c4.55,5.93,10.53,10.46,17.94,13.59,7.4,3.13,15.36,4.7,23.9,4.7Z"/>
    <path class="cls-2" d="M777.77,697.57l-22.28,21.25v25.6h-27.81v-125.22h27.81v65.49l68.58-65.49h35.79l-65.57,62.65,65.57,62.57h-33.1l-48.98-46.85Z"/>
    <path class="cls-2" d="M986.97,744.42h-111.32v-125.22h27.81v100.89h83.51v24.33Z"/>
    <path class="cls-2" d="M1041.2,744.42h-27.89v-62.57l-62.57-62.65h34.76l41.71,40.06,41.79-40.06h34.76l-62.57,62.65v62.57Z"/>
    <path class="cls-2" d="M1253.14,744.42h-33.1l-78.21-92.35v92.35h-27.81v-125.22h33.02l78.29,92.35v-92.35h27.81v125.22Z"/>
    <g>
      <path class="cls-2" d="M160.9,854.02h-15.75l-35.33-70.7h18.29l25.16,54.24,26.63-54.24h16.33l-35.33,70.7Z"/>
      <path class="cls-2" d="M218.56,854.02h-15.7v-70.7h15.7v70.7Z"/>
      <path class="cls-2" d="M308.33,854.02h-18.69l-44.16-52.15v52.15h-15.7v-70.7h18.65l44.21,52.15v-52.15h15.7v70.7Z"/>
      <path class="cls-2" d="M364.36,854.02h-15.7v-56.97h-31.4v-13.74h78.56v13.74h-31.45v56.97Z"/>
      <path class="cls-2" d="M471.07,854.02h-16.68l-7.67-15.7h-37.74l-7.63,15.7h-16.68l35.33-70.7h15.75l35.33,70.7ZM440.06,824.58l-12.22-25.07-12.18,25.07h24.4Z"/>
      <path class="cls-2" d="M514.15,855.98c-8.86,0-16.66-1.62-23.4-4.86-6.73-3.24-12-7.67-15.79-13.29-3.79-5.62-5.69-12-5.69-19.14s1.9-13.52,5.69-19.16c3.79-5.64,9.06-10.07,15.79-13.32,6.74-3.24,14.54-4.86,23.4-4.86,5.77,0,11.84,1.26,18.22,3.77,6.38,2.51,11.37,5.69,14.97,9.52l-10.26,11.37c-2.26-2.7-5.61-5-10.06-6.89s-9.09-2.83-13.94-2.83c-5.35,0-10.15.89-14.39,2.66-4.24,1.77-7.58,4.33-10.04,7.67-2.45,3.35-3.68,7.37-3.68,12.07s1.28,8.68,3.84,12.02,5.97,5.9,10.24,7.67c4.27,1.77,8.94,2.66,14.03,2.66,4.7,0,9.08-.95,13.14-2.86s7.25-4.67,9.57-8.3h-24.13v-13.74h40.1v37.87h-15.7v-4.28c-6.04,4.16-13.34,6.24-21.9,6.24Z"/>
      <path class="cls-2" d="M626.57,854.02h-62.85v-70.7h62.85v13.74h-47.15v14.77h39.3v13.74h-39.3v14.72h47.15v13.74Z"/>
      <path class="cls-2" d="M705.17,855.98c-8.63,0-16.22-1.62-22.79-4.86-6.57-3.24-11.7-7.67-15.39-13.29-3.69-5.62-5.53-12-5.53-19.14s1.81-13.52,5.44-19.16c3.63-5.64,8.67-10.07,15.12-13.32,6.45-3.24,13.93-4.86,22.44-4.86,5.62,0,11.43,1.26,17.44,3.77,6.01,2.51,10.74,5.69,14.19,9.52l-9.99,11.37c-2.11-2.7-5.12-5-9.01-6.89-3.9-1.89-8.21-2.83-12.94-2.83-5.23,0-9.91.89-14.03,2.66-4.12,1.77-7.38,4.33-9.77,7.67-2.4,3.35-3.59,7.37-3.59,12.07s1.2,8.68,3.59,12.02c2.39,3.35,5.65,5.9,9.77,7.67,4.12,1.77,8.8,2.66,14.03,2.66,3.78,0,7.71-.79,11.8-2.37,4.09-1.58,7.46-3.98,10.1-7.23l10.04,11.46c-4.49,4.31-9.36,7.57-14.61,9.77-5.25,2.2-10.68,3.3-16.31,3.3Z"/>
      <path class="cls-2" d="M827.39,854.02h-16.68l-7.67-15.7h-37.74l-7.63,15.7h-16.68l35.33-70.7h15.75l35.33,70.7ZM796.39,824.58l-12.22-25.07-12.18,25.07h24.4Z"/>
      <path class="cls-2" d="M906.84,854.02h-17.89l-14.1-23.55h-22.84v23.55h-15.7v-70.7h43.09c5.06,0,9.42,1.01,13.09,3.03,3.67,2.02,6.51,4.81,8.52,8.36,2.01,3.55,3.01,7.62,3.01,12.2,0,4.82-1.17,9.07-3.5,12.76s-5.56,6.48-9.66,8.39l15.97,25.96ZM879.41,816.72c2.59,0,4.72-.86,6.4-2.59s2.52-4.13,2.52-7.23-.9-5.55-2.7-7.27c-1.8-1.72-3.87-2.59-6.22-2.59h-27.39v19.67h27.39Z"/>
      <path class="cls-2" d="M988.48,855.98c-8.63,0-16.22-1.62-22.79-4.86-6.57-3.24-11.7-7.67-15.39-13.29-3.69-5.62-5.53-12-5.53-19.14s1.81-13.52,5.44-19.16c3.63-5.64,8.67-10.07,15.12-13.32,6.45-3.24,13.93-4.86,22.44-4.86,5.62,0,11.43,1.26,17.44,3.77,6.01,2.51,10.74,5.69,14.19,9.52l-9.99,11.37c-2.11-2.7-5.12-5-9.01-6.89-3.9-1.89-8.21-2.83-12.94-2.83-5.23,0-9.91.89-14.03,2.66-4.12,1.77-7.38,4.33-9.77,7.67-2.4,3.35-3.59,7.37-3.59,12.07s1.2,8.68,3.59,12.02c2.39,3.35,5.65,5.9,9.77,7.67,4.12,1.77,8.8,2.66,14.03,2.66,3.78,0,7.71-.79,11.8-2.37,4.09-1.58,7.46-3.98,10.1-7.23l10.04,11.46c-4.49,4.31-9.36,7.57-14.61,9.77-5.25,2.2-10.68,3.3-16.31,3.3Z"/>
      <path class="cls-2" d="M1091.16,854.02h-62.85v-70.7h15.7v56.96h47.15v13.74Z"/>
      <path class="cls-2" d="M1134.09,855.98c-5.06,0-9.93-.63-14.63-1.9-4.7-1.26-8.89-3.24-12.58-5.91-3.69-2.68-6.62-6.13-8.79-10.35-2.17-4.22-3.26-9.29-3.26-15.21v-39.3h15.7v39.3c0,3.93,1.11,7.2,3.35,9.81,2.23,2.62,5.14,4.58,8.74,5.89s7.42,1.96,11.46,1.96,7.91-.63,11.51-1.9c3.6-1.26,6.51-3.2,8.74-5.82,2.23-2.62,3.35-5.93,3.35-9.95v-39.3h15.7v39.3c0,5.92-1.09,10.99-3.26,15.21-2.17,4.22-5.1,7.67-8.79,10.35-3.69,2.68-7.88,4.65-12.58,5.91-4.7,1.26-9.59,1.9-14.68,1.9Z"/>
      <path class="cls-2" d="M1231.46,854.02h-47.02v-70.7h43.09c7.55,0,13.54,1.63,17.98,4.88,4.43,3.26,6.65,8.02,6.65,14.3,0,2.62-.68,5.03-2.03,7.25-1.35,2.22-3.1,4.14-5.24,5.78,3.48,1.55,6.22,3.75,8.21,6.6,1.99,2.86,2.99,6.29,2.99,10.3,0,6.27-2.29,11.44-6.87,15.5-4.58,4.06-10.5,6.09-17.75,6.09ZM1227.53,810.84c2.59,0,4.72-.56,6.4-1.67s2.52-2.85,2.52-5.2-.91-4.13-2.72-5.24c-1.82-1.12-3.88-1.67-6.2-1.67h-27.39v13.79h27.39ZM1231.46,840.28c5.95,0,8.92-2.62,8.92-7.85,0-1.9-.42-3.44-1.27-4.6s-1.95-1.99-3.3-2.5c-1.35-.5-2.8-.76-4.35-.76h-31.31v15.7h31.31Z"/>
    </g>
  </g>
</svg>